<!DOCTYPE svg PUBLIC "-//W3C//DTD SVG 1.1//EN" "http://www.w3.org/Graphics/SVG/1.1/DTD/svg11.dtd">
<!-- Uploaded to: SVG Repo, www.svgrepo.com, Transformed by: SVG Repo Mixer Tools -->
<svg fill="#ff0000" version="1.1" id="Capa_1" xmlns="http://www.w3.org/2000/svg" xmlns:xlink="http://www.w3.org/1999/xlink" width="150px" height="150px" viewBox="-192.97 -192.97 868.37 868.37" xml:space="preserve" stroke="#ff0000" stroke-width="0.00482428">
<g id="SVGRepo_bgCarrier" stroke-width="0" transform="translate(0,0), scale(1)">
<path transform="translate(-192.97, -192.97), scale(27.1365625)" d="M16,31.852132315698423C18.65121793163584,31.299179133628947,17.974354734309717,26.711640776640326,19.939334078787954,24.84788920565184C21.105656459871852,23.741651027559776,23.426438500639417,24.84576731120472,24.57387331682577,23.719950209767262C25.705125321808016,22.610011034767034,25.33208949646515,20.695774826005394,25.733714170166945,19.16267545138858C26.114797280456962,17.707988236388307,27.142348510950345,16.338260683053957,26.896280651148253,14.854754754920878C26.64995381349623,13.369687488480809,25.296233550087422,12.36043855080414,24.404290424564252,11.147780661030037C23.588241846293727,10.038306616596715,22.791093908901715,8.96086761826104,21.833251108953725,7.97121863606767C20.746665120018495,6.848551411264479,19.665578344482213,5.758444159873174,18.35900480867331,4.901754948711115C16.68921394972209,3.8069127721665597,14.988114126851327,1.6638363108897127,13.07245233728704,2.2269711190673096C11.081017025242552,2.812380583595666,11.48520821299758,6.256053810639317,9.770879436188984,7.42635107553531C7.980980174054366,8.648237005033053,4.073385627493459,6.688067031941747,3.4829714853437626,8.773290217608992C2.7889901212675117,11.22429185778629,6.541380997584014,12.79650935517746,7.593492592085436,15.11644046763589C8.083171391190085,16.19619387696173,7.822979465598427,17.43748058950374,7.946999585213915,18.616578448535762C8.096694709566133,20.039776564925837,7.8614291078535485,21.514450757753,8.4056605548891,22.83797395014846C9.016534068387296,24.32356480885191,10.219224857388916,25.430886288402817,11.254166063912443,26.659317543295217C12.781713286542093,28.47245121675832,13.679107605058828,32.336190913714816,16,31.852132315698423" fill="#eed3d3" strokewidth="0"/>
</g>
<g id="SVGRepo_tracerCarrier" stroke-linecap="round" stroke-linejoin="round" stroke="#CCCCCC" stroke-width="3.8594239999999997"/>
<g id="SVGRepo_iconCarrier"> <g> <g> <path d="M381.163,57.799h-75.094C302.323,25.316,274.686,0,241.214,0c-33.471,0-61.104,25.315-64.85,57.799h-75.098 c-30.39,0-55.111,24.728-55.111,55.117v2.828c0,23.223,14.46,43.1,34.83,51.199v260.369c0,30.39,24.724,55.117,55.112,55.117 h210.236c30.389,0,55.111-24.729,55.111-55.117V166.944c20.369-8.1,34.83-27.977,34.83-51.199v-2.828 C436.274,82.527,411.551,57.799,381.163,57.799z M241.214,26.139c19.037,0,34.927,13.645,38.443,31.66h-76.879 C206.293,39.783,222.184,26.139,241.214,26.139z M375.305,427.312c0,15.978-13,28.979-28.973,28.979H136.096 c-15.973,0-28.973-13.002-28.973-28.979V170.861h268.182V427.312z M410.135,115.744c0,15.978-13,28.979-28.973,28.979H101.266 c-15.973,0-28.973-13.001-28.973-28.979v-2.828c0-15.978,13-28.979,28.973-28.979h279.897c15.973,0,28.973,13.001,28.973,28.979 V115.744z"/> <path d="M171.144,422.863c7.218,0,13.069-5.853,13.069-13.068V262.641c0-7.216-5.852-13.07-13.069-13.07 c-7.217,0-13.069,5.854-13.069,13.07v147.154C158.074,417.012,163.926,422.863,171.144,422.863z"/> <path d="M241.214,422.863c7.218,0,13.07-5.853,13.07-13.068V262.641c0-7.216-5.854-13.07-13.07-13.07 c-7.217,0-13.069,5.854-13.069,13.07v147.154C228.145,417.012,233.996,422.863,241.214,422.863z"/> <path d="M311.284,422.863c7.217,0,13.068-5.853,13.068-13.068V262.641c0-7.216-5.852-13.07-13.068-13.07 c-7.219,0-13.07,5.854-13.07,13.07v147.154C298.213,417.012,304.067,422.863,311.284,422.863z"/> </g> </g> </g>
</svg>