<!DOCTYPE svg PUBLIC "-//W3C//DTD SVG 1.1//EN" "http://www.w3.org/Graphics/SVG/1.1/DTD/svg11.dtd">
<!-- Uploaded to: SVG Repo, www.svgrepo.com, Transformed by: SVG Repo Mixer Tools -->
<svg width="150px" height="150px" viewBox="-368.64 -368.64 1761.28 1761.28" class="icon" version="1.1" xmlns="http://www.w3.org/2000/svg" fill="#000000" stroke="#000000" stroke-width="0.01024">
<g id="SVGRepo_bgCarrier" stroke-width="0" transform="translate(61.44,61.44), scale(0.88)">
<path transform="translate(-368.64, -368.64), scale(55.04)" d="M16,29.485501885879785C17.972523817242596,29.14059183438127,19.829263974051692,28.55284006201067,21.69533553944118,27.826486108308462C23.67918925154172,27.05428636309115,26.269315310168412,26.88825573306755,27.36371771397831,25.062262475669293C28.491133471289697,23.181186955395916,27.526904862448635,20.741531551710704,27.245189837595174,18.56664119870953C27.027927301600734,16.889335581628348,26.485165662715477,15.32686742793203,25.897268582837334,13.741013031680732C25.366879049865084,12.31028544112345,24.344431834606247,11.136785372596128,23.944915928288687,9.664140970281833C23.26245207439862,7.148530056371953,24.441013288759162,3.9999565777972816,22.722846634042803,2.0398651185358077C21.19301643954544,0.2946286537706235,18.30771858504184,0.3542447623317788,16.000000000000004,0.6005487903021276C13.756994577334838,0.8399459481456826,11.889074017958684,2.2787797973349058,9.93445999782379,3.4047764037156796C8.088334565101128,4.468275872554798,5.580918419188878,5.081442944324406,4.788531003676651,7.059151825152011C3.94775917321052,9.157622703551379,6.3216607835668635,11.472209322975306,5.819089339120852,13.676273578305224C5.316679750571127,15.879628002626113,1.9672523941158722,16.931064058586543,2.022382686643363,19.19029993929643C2.0736393633541845,21.290795290255996,4.900481215232281,22.173485312250357,6.069050545539421,23.919667916268537C7.358222812852469,25.846066400621233,7.235246769874029,28.86810224783171,9.257296985186379,30.001367080993276C11.248627429580582,31.11741491538761,13.751364590324318,29.87869204570093,16,29.485501885879785" fill="#c2d4ef" strokewidth="0"/>
</g>
<g id="SVGRepo_tracerCarrier" stroke-linecap="round" stroke-linejoin="round" stroke="#c2d4ef" stroke-width="6.144"/>
<g id="SVGRepo_iconCarrier">
<path d="M823.3 938.8H229.4c-71.6 0-129.8-58.2-129.8-129.8V215.1c0-71.6 58.2-129.8 129.8-129.8h297c23.6 0 42.7 19.1 42.7 42.7s-19.1 42.7-42.7 42.7h-297c-24.5 0-44.4 19.9-44.4 44.4V809c0 24.5 19.9 44.4 44.4 44.4h593.9c24.5 0 44.4-19.9 44.4-44.4V512c0-23.6 19.1-42.7 42.7-42.7s42.7 19.1 42.7 42.7v297c0 71.6-58.2 129.8-129.8 129.8z" fill="#3688FF"/>
<path d="M483 756.5c-1.8 0-3.5-0.1-5.3-0.3l-134.5-16.8c-19.4-2.4-34.6-17.7-37-37l-16.8-134.5c-1.6-13.1 2.9-26.2 12.2-35.5l374.6-374.6c51.1-51.1 134.2-51.1 185.3 0l26.3 26.3c24.8 24.7 38.4 57.6 38.4 92.7 0 35-13.6 67.9-38.4 92.7L513.2 744c-8.1 8.1-19 12.5-30.2 12.5z m-96.3-97.7l80.8 10.1 359.8-359.8c8.6-8.6 13.4-20.1 13.4-32.3 0-12.2-4.8-23.7-13.4-32.3L801 218.2c-17.9-17.8-46.8-17.8-64.6 0L376.6 578l10.1 80.8z" fill="#5F6379"/>
</g>
</svg>